PathFileType	4	(X/Y/Z)	/Users/niels/Desktop/University/Third Semester/Perception and Action/Exam/Gymnastics Motion Tracking/Code for Gym Tracking/Analyzed Data/Webcam_Backflip/id5_7_trajectory_Sports2D/id5_7_trajectory_Sports2D_px_person00.trc
DataRate	CameraRate	NumFrames	NumMarkers	Units	OrigDataRate	OrigDataStartFrame	OrigNumFrames
29.77272727272727	29.77272727272727	10	22	m	29.77272727272727	115	132
Frame#	Time	Hip			RHip			RKnee			RAnkle			RBigToe			RSmallToe			RHeel			LHip			LKnee			LAnkle			LBigToe			LSmallToe			LHeel			Neck			Head			Nose			RShoulder			RElbow			RWrist			LShoulder			LElbow			LWrist		
		X1	Y1	Z1	X2	Y2	Z2	X3	Y3	Z3	X4	Y4	Z4	X5	Y5	Z5	X6	Y6	Z6	X7	Y7	Z7	X8	Y8	Z8	X9	Y9	Z9	X10	Y10	Z10	X11	Y11	Z11	X12	Y12	Z12	X13	Y13	Z13	X14	Y14	Z14	X15	Y15	Z15	X16	Y16	Z16	X17	Y17	Z17	X18	Y18	Z18	X19	Y19	Z19	X20	Y20	Z20	X21	Y21	Z21	X22	Y22	Z22
115	3.8625954198473282	1.3972396417169126	-0.733624119106464	0.0	1.3519535804239877	-0.7331660437378658	0.0	1.363240807564448	-0.8946856815394256	0.0	1.3744372016906379	-1.0609208156616132	0.0	1.3920899472197763	-1.0865980617661375	0.0	1.3673576175292157	-1.0923783099339162	0.0	1.3753433766526295	-1.074926417557077	0.0	1.4445614104939548	-0.7385662442327369	0.0	1.4591522069812748	-0.9183115698573204	0.0	1.461826972287857	-1.0819448523046695	0.0	1.442820466594496	-1.099860648087228	0.0	1.479410264623506	-1.1000553399781872	0.0	1.4576240899302295	-1.0901821197011685	0.0	1.4153349987179011	-0.44413840273427163	0.0	1.4269224830675709	-0.32671172913580276	0.0	1.4269159229694204	-0.39435700613111	0.0	1.319908133634421	-0.49046541479776623	0.0	1.2769110157280907	-0.6006718814895302	0.0	1.2784435826057783	-0.7020845960683336	0.0	1.497582275475405	-0.498113048911423	0.0	1.5264376443697512	-0.6234603454268535	0.0	1.5529518119459729	-0.7157746220212964	0.0
116	3.8961832061068704	1.3982756704106052	-0.7353514214779061	0.0	1.3525918872022684	-0.7348913337325271	0.0	1.3623856382127937	-0.8984900369865053	0.0	1.3759430641372679	-1.0691880171430093	0.0	1.3924467968221812	-1.0893019222657117	0.0	1.3697219258604636	-1.0972852072956143	0.0	1.3779764064064923	-1.0833132744975438	0.0	1.4461441218398143	-0.7400911594633852	0.0	1.4600967431158982	-0.9197723076328806	0.0	1.4619780380490794	-1.0820803333544065	0.0	1.4414374864970132	-1.1004812280407352	0.0	1.4790562709512582	-1.101345339472732	0.0	1.457966910521554	-1.0897832263263816	0.0	1.4136961291158952	-0.4411755371569809	0.0	1.4233983078475985	-0.3231821677185934	0.0	1.4249101980360828	-0.3901863502530232	0.0	1.3178865241037558	-0.4894642504492454	0.0	1.278320761701898	-0.6014087798786856	0.0	1.2809896137246075	-0.7033630655141871	0.0	1.4978641932516439	-0.4953101280813751	0.0	1.5282113090519933	-0.6226392707984512	0.0	1.5535114826732914	-0.716064764865908	0.0
117	3.9297709923664126	1.3988917773096454	-0.7383208387476289	0.0	1.3529589640320672	-0.7382338243842997	0.0	1.3619760004615231	-0.9052558424686741	0.0	1.3756079659764708	-1.0752386816853436	0.0	1.3903653033784242	-1.0919570353186994	0.0	1.369444042208312	-1.1012079002888855	0.0	1.3784456764382154	-1.0881523081032483	0.0	1.4472536049666096	-0.7426253796857158	0.0	1.4610352277445946	-0.921946766294639	0.0	1.4621886760151228	-1.0820307858107736	0.0	1.4404063357000387	-1.100432412250966	0.0	1.4788892871603267	-1.101617636949128	0.0	1.4583962148634328	-1.089058724029915	0.0	1.4108205178813114	-0.43916269901982713	0.0	1.4180591082948208	-0.320715627795635	0.0	1.4215300809740725	-0.387258934502664	0.0	1.315232877101822	-0.48971972410924214	0.0	1.280116926112238	-0.6042575209669397	0.0	1.283928222739154	-0.7073193943180577	0.0	1.4968590965526072	-0.49317589290502	0.0	1.5287333929024587	-0.6221835185109091	0.0	1.5534299686618067	-0.7178500504062968	0.0
118	3.9633587786259543	1.39894717556349	-0.7420255816185234	0.0	1.3528228590854023	-0.7425984726263075	0.0	1.3618579453888189	-0.9138908096713756	0.0	1.374378375874323	-1.0793556848511425	0.0	1.3870991894243117	-1.094301708423684	0.0	1.367563268164592	-1.1039061120670073	0.0	1.3776696828519752	-1.089929054299712	0.0	1.447775858752566	-0.7457196656870245	0.0	1.4621079841315954	-0.9250549800237227	0.0	1.4624871990124084	-1.0815130543499494	0.0	1.440089902172045	-1.0996110653953566	0.0	1.478965035575237	-1.1008005894035167	0.0	1.4589693052019965	-1.0878469875542531	0.0	1.4066286674238715	-0.43767629923626494	0.0	1.4106895645007649	-0.3189344610197012	0.0	1.4167517830359861	-0.38515334816322483	0.0	1.3118304421359943	-0.4909669993138944	0.0	1.2819095236103644	-0.6087173155108431	0.0	1.286609065167513	-0.7135219911565506	0.0	1.4946046974448695	-0.4913129097653029	0.0	1.5278952792086704	-0.6216893452269646	0.0	1.552701993838619	-0.7203530199087336	0.0
119	3.9969465648854965	1.3983283480416115	-0.745890584420771	0.0	1.3519670165930069	-0.7473799083474975	0.0	1.361677918831697	-0.9230984773314374	0.0	1.3729817027289022	-1.0820997478670131	0.0	1.383951494999994	-1.0960600917982384	0.0	1.3652828480900612	-1.105449112315052	0.0	1.3763526303338	-1.089532193552786	0.0	1.4476111895353816	-0.748903025740984	0.0	1.463504823593875	-0.9293214715962766	0.0	1.4628646941253036	-1.080210137286261	0.0	1.4408699042854498	-1.0980398632302018	0.0	1.4793694510829667	-1.0989121358513576	0.0	1.459647500396335	-1.0860245223041036	0.0	1.401153281883437	-0.4363373242359474	0.0	1.4012823118944133	-0.3174234264973842	0.0	1.410588684208662	-0.3833608670048451	0.0	1.3076127949180405	-0.4928588980235114	0.0	1.283277070848587	-0.6141857154034822	0.0	1.2884911172239486	-0.7214537386265086	0.0	1.4912475588232992	-0.48928214675372583	0.0	1.5257091032958876	-0.6207510724635024	0.0	1.551156949578433	-0.7227260522494251	0.0
120	4.030534351145039	1.3969748473507235	-0.7493740666363423	0.0	1.3502964580531305	-0.752040523992658	0.0	1.361044463428263	-0.9317859101000401	0.0	1.371761996180301	-1.0840232033585784	0.0	1.3816590455153999	-1.0971340919105974	0.0	1.3634099557186197	-1.106112246082782	0.0	1.3748555703434284	-1.08790136978477	0.0	1.4466923850474707	-0.7517253126360384	0.0	1.4653856285969027	-0.9348712087616042	0.0	1.4632369733236197	-1.0778389016419	0.0	1.4429740099550545	-1.096045596399508	0.0	1.4801690513533605	-1.0960637753237117	0.0	1.4602342269475106	-1.0834542118105932	0.0	1.3946029143323027	-0.4347896650761049	0.0	1.390192235009288	-0.31567560540739387	0.0	1.4031715081972846	-0.3812856055524111	0.0	1.3026391723187034	-0.4949422657373767	0.0	1.283854584230761	-0.6201105707019958	0.0	1.2891528605124338	-0.730546793302848	0.0	1.4870404160277437	-0.4866394883489322	0.0	1.5223660807792478	-0.6189104384318785	0.0	1.5484956674612445	-0.7241597285948919	0.0
121	4.06412213740458	1.3949160313454612	-0.7520494278810582	0.0	1.3478899364999262	-0.7560986152781268	0.0	1.3596925912450322	-0.939296243841034	0.0	1.370746909496285	-1.0855404839480105	0.0	1.3803381937270394	-1.0976357896394968	0.0	1.3622106372968519	-1.1062332420891867	0.0	1.3732709727388224	-1.085807552988267	0.0	1.4450398582972517	-0.7537934223610686	0.0	1.4677783725574558	-0.9415733903976993	0.0	1.4634079371845417	-1.0743100657190858	0.0	1.4462969584334993	-1.0942980246751395	0.0	1.4812908088419456	-1.0925559290799431	0.0	1.4603852979941219	-1.080021413820617	0.0	1.3873947659514905	-0.43268783401371075	0.0	1.3781708984126422	-0.3131515941888847	0.0	1.3948655355925792	-0.3783935868169756	0.0	1.2971312897784737	-0.4966584074333649	0.0	1.2834146244147735	-0.625997056891535	0.0	1.2882657737124354	-0.7401569464893247	0.0	1.4823275340209494	-0.48303832397162433	0.0	1.5182295294536505	-0.6158133682175964	0.0	1.5443758246141979	-0.7240896289229871	0.0
122	4.097709923664122	1.392303667262579	-0.7536247230239312	0.0	1.3449515992814745	-0.7591279920017449	0.0	1.3576275001957723	-0.9454217268025096	0.0	1.3698506170207407	-1.086900170543273	0.0	1.3797748126404028	-1.0977658714278744	0.0	1.3616129726445563	-1.1060977955078235	0.0	1.3716479127171124	-1.0837417311813893	0.0	1.442829646058434	-0.7548148935936904	0.0	1.470523427256434	-0.9488826512283948	0.0	1.463071983690097	-1.0699104430446578	0.0	1.4502404780043838	-1.0935230175898123	0.0	1.4823995706290023	-1.088913241036147	0.0	1.4597213438854126	-1.0758334679004289	0.0	1.3800934056595269	-0.4297649682574997	0.0	1.3662354065399098	-0.30950954517828716	0.0	1.386347480730333	-0.37443607216305835	0.0	1.291453785482104	-0.49744930068989257	0.0	1.2819664549293575	-0.6312450167284694	0.0	1.2857127182281514	-0.7495125901179785	0.0	1.4775227895186427	-0.47839865292224704	0.0	1.5137868334245825	-0.6114735448744812	0.0	1.538588908083594	-0.7223521375391411	0.0
123	4.131297709923665	1.389407808833461	-0.75393238212505	0.0	1.3417345776463592	-0.7608144652066862	0.0	1.3551162127006877	-0.9501839677604792	0.0	1.369004794398907	-1.088168533545552	0.0	1.3796761286469763	-1.0977074508122908	0.0	1.3614249340612683	-1.1058930354025787	0.0	1.3702140588974756	-1.0818774843674408	0.0	1.440401229541814	-0.7546507912162702	0.0	1.4732752362462125	-0.9557255708408103	0.0	1.461921663639223	-1.0653932652040918	0.0	1.453640063504373	-1.0940504477805115	0.0	1.4828313897920227	-1.0858052902475785	0.0	1.4580111977211476	-1.0714270599338525	0.0	1.3732493789950289	-0.4259503334247587	0.0	1.3553766916056094	-0.3047516669902575	0.0	1.3784054488571211	-0.36950091566873866	0.0	1.2859835151161603	-0.4969610625782555	0.0	1.2797746623519386	-0.6351806081460192	0.0	1.281791645400509	-0.757719322719008	0.0	1.4730070417588612	-0.4730176440116867	0.0	1.509512699833155	-0.6063471002857134	0.0	1.5312762837823974	-0.7191927825690176	0.0
124	4.1648854961832065	1.386558331433051	-0.7529517225692612	0.0	1.3384887854141165	-0.7610142578946278	0.0	1.352517075446279	-0.9535929820158892	0.0	1.368191162842676	-1.0892533034548508	0.0	1.3797958991705062	-1.0975869793161954	0.0	1.3614567263804167	-1.1057149112218088	0.0	1.3693512276441484	-1.0801618384394858	0.0	1.4381321944686114	-0.7533431891824562	0.0	1.4755993783717813	-0.9607236373734903	0.0	1.459819619444451	-1.0619364422217679	0.0	1.455135577708997	-1.0956998583472701	0.0	1.481746400034991	-1.0839452155015534	0.0	1.4553227593848117	-1.0678057108195302	0.0	1.367263453140524	-0.42140464093108043	0.0	1.3463209769015947	-0.29908533246810426	0.0	1.3715700587124373	-0.3638584012061874	0.0	1.280945628951337	-0.49513997378899927	0.0	1.2771997548441596	-0.6373197987657316	0.0	1.2772064972777515	-0.7639298369041814	0.0	1.4689944888807804	-0.46742696224727376	0.0	1.5056573119728478	-0.601112324429274	0.0	1.5230116494542978	-0.7151629601812886	0.0
